<?xml version="1.0" encoding="UTF-8" standalone="no"?>
<!-- Created with Inkscape (http://www.inkscape.org/) -->

<svg
   width="165.97917mm"
   height="168.46216mm"
   viewBox="0 0 165.97917 168.46216"
   version="1.1"
   id="svg5"
   inkscape:version="1.1.1 (3bf5ae0d25, 2021-09-20)"
   sodipodi:docname="logo_furror_b_and_w_vector.svg"
   xmlns:inkscape="http://www.inkscape.org/namespaces/inkscape"
   xmlns:sodipodi="http://sodipodi.sourceforge.net/DTD/sodipodi-0.dtd"
   xmlns="http://www.w3.org/2000/svg"
   xmlns:svg="http://www.w3.org/2000/svg">
  <sodipodi:namedview
     id="namedview7"
     pagecolor="#ffffff"
     bordercolor="#666666"
     borderopacity="1.0"
     inkscape:pageshadow="2"
     inkscape:pageopacity="0.0"
     inkscape:pagecheckerboard="0"
     inkscape:document-units="mm"
     showgrid="false"
     fit-margin-top="0"
     fit-margin-left="0"
     fit-margin-right="0"
     fit-margin-bottom="0"
     inkscape:zoom="0.52787981"
     inkscape:cx="117.45098"
     inkscape:cy="279.41966"
     inkscape:window-width="1920"
     inkscape:window-height="1001"
     inkscape:window-x="-9"
     inkscape:window-y="-9"
     inkscape:window-maximized="1"
     inkscape:current-layer="layer1" />
  <defs
     id="defs2" />
  <g
     inkscape:label="Layer 1"
     inkscape:groupmode="layer"
     id="layer1"
     transform="translate(-20.377416,-47.156896)">
    <path
       style="fill:#000000;stroke-width:0.264583"
       d="m 97.506036,215.378 c -7.564539,-0.80287 -17.272567,-3.08769 -24.450994,-5.7546 -9.33885,-3.46956 -20.861526,-11.1683 -28.482851,-19.03048 -8.131406,-8.38837 -14.283386,-17.81734 -18.331842,-28.09669 -3.916135,-9.94337 -6.504514,-26.81062 -5.723937,-37.30018 0.887069,-11.92063 3.503194,-21.22424 9.099697,-32.360853 4.825071,-9.60152 10.47015,-16.88782 18.603249,-24.01186 7.369932,-6.45555 14.50888,-11.18612 21.371428,-14.16159 7.148614,-3.0995 15.974082,-5.65155 23.837174,-6.89297 6.075421,-0.95918 16.62528,-0.77185 24.20937,0.42988 6.04743,0.95825 15.06436,3.68418 21.9472,6.63492 12.56867,5.38832 24.09091,14.7442 32.21111,26.15493 10.46703,14.70857 14.08279,24.145013 14.49741,37.835433 0.13677,4.51621 0.17773,4.58682 -1.22803,-2.11667 -0.90861,-4.33282 -2.23156,-9.10797 -3.44519,-12.43542 -0.93873,-2.57372 -3.15593,-7.733513 -3.27289,-7.616543 -0.043,0.043 0.21101,1.07697 0.56457,2.29763 0.69484,2.399003 1.18431,5.058433 0.929,5.047633 -0.0871,-0.004 -0.56054,-1.04548 -1.05207,-2.3151 -1.41469,-3.654153 -3.7786,-8.461603 -5.36334,-10.907373 -4.12157,-6.36091 -11.52399,-14.17086 -16.39328,-17.29578 -0.37944,-0.24351 0.99326,1.25647 3.05045,3.33329 6.49291,6.55487 11.28108,13.17817 14.9708,20.70858 5.93396,12.110693 8.7592,23.356213 8.37566,33.338293 -0.0839,2.18281 -0.23064,4.29479 -0.32616,4.69327 -0.30669,1.27953 -0.64232,0.4927 -0.64232,-1.50585 0,-4.26553 -0.74025,-9.4539 -2.19124,-15.35825 -0.63038,-2.56513 -0.86355,-3.20416 -0.91713,-2.51355 -0.10409,1.34157 -0.34952,2.71572 -0.46451,2.60073 -0.0546,-0.0546 -0.51239,-1.94195 -1.01742,-4.19422 -2.22076,-9.90385 -6.11027,-18.893913 -11.15865,-25.791693 -6.69465,-9.14713 -18.81556,-17.86404 -31.0823,-22.35322 -15.58385,-5.70314 -35.11266,-6.14388 -51.544116,-1.16328 -11.176074,3.38762 -20.585058,8.9693 -29.384777,17.43189 -6.214631,5.97654 -11.757161,13.93877 -16.163976,23.220673 -1.382397,2.91169 -4.771715,11.91689 -4.771715,12.67815 0,0.16291 0.337411,-0.16815 0.749804,-0.73568 1.594097,-2.19381 7.086892,-6.53101 9.013657,-7.11733 0.550477,-0.16751 0.606468,-0.12741 0.419195,0.30022 -0.118877,0.27146 -0.266352,1.38652 -0.327721,2.47793 -0.131467,2.33804 0.396895,4.91805 1.422821,6.94768 0.828894,1.63983 3.409302,4.20763 5.467035,5.44032 2.886861,1.72938 7.546904,2.95783 11.220334,2.95783 1.795177,0 1.969702,0.0452 1.78756,0.46303 -0.111014,0.25466 -0.430496,1.29645 -0.709959,2.3151 -0.426318,1.55395 -0.486111,2.42706 -0.371443,5.42396 0.07517,1.96453 0.326728,4.34058 0.559027,5.28012 0.43715,1.76807 1.675472,4.77921 1.96051,4.76722 0.08927,-0.004 0.380471,-0.48001 0.647118,-1.05833 0.266644,-0.57833 0.574378,-1.05151 0.68385,-1.05151 0.109468,0 0.144901,0.93517 0.07873,2.07816 -0.22638,3.91057 1.255194,8.97879 3.688044,12.61621 2.042879,3.05436 4.925719,5.96462 6.885998,6.9515 0.919771,0.46305 2.059422,0.91676 2.532555,1.00825 l 0.860242,0.16633 -0.43249,-1.02533 c -0.458714,-1.08749 -0.601216,-4.02543 -0.247222,-5.09691 0.1929,-0.58388 0.273609,-0.5107 1.059889,0.96093 2.397864,4.48793 6.314377,8.0605 11.96161,10.91114 5.498211,2.77543 9.5731,3.96206 14.31429,4.16842 2.11161,0.0919 3.24115,0.0474 3.24115,-0.12782 0,-0.1479 -0.40489,-0.57773 -0.89975,-0.95518 -1.62489,-1.23936 -4.08357,-5.59391 -3.4923,-6.18518 0.0774,-0.0774 0.68657,0.39756 1.35381,1.05537 1.51634,1.49493 3.57812,2.59867 6.47782,3.46781 3.61123,1.08241 5.66505,1.34668 10.51711,1.35325 2.5102,0.003 4.56255,0.0657 4.56079,0.13847 -0.002,0.0728 -0.44821,0.41692 -0.99211,0.76481 -2.73645,1.75028 -6.2354,5.30173 -7.38259,7.49336 -1.22691,2.34392 -0.66608,3.3884 2.13486,3.9759 1.36947,0.28725 2.17538,0.1498 4.19267,-0.71509 1.703,-0.73014 -1.34698,2.40456 -3.37027,3.46389 l -1.40644,0.73637 1.82415,0.88235 c 1.68329,0.81423 1.91113,0.86 2.9506,0.59269 6.58171,-1.69251 12.23355,-4.60433 19.2484,-9.91673 14.69606,-11.12944 25.35372,-27.72375 28.6961,-44.68071 0.68029,-3.45134 0.93219,-3.13567 0.96992,1.21548 0.0265,3.05786 0.12943,2.96032 1.14587,-1.08604 0.85741,-3.41328 1.12209,-5.00596 1.6085,-9.67879 0.22658,-2.17673 0.4533,-3.99905 0.50383,-4.04958 0.0505,-0.0505 0.24008,0.95219 0.42122,2.22827 0.41782,2.94347 0.20277,9.97655 -0.3992,13.05506 -1.19981,6.13596 -2.8457,10.73015 -6.37189,17.78603 -4.05232,8.10863 -8.8981,14.64917 -17.71308,23.90801 -1.27441,1.33859 -4.97456,4.61391 -7.40406,6.55399 -8.87318,7.08567 -19.59823,12.21611 -32.94063,15.75747 -6.60183,1.75227 -15.134412,2.64884 -20.769669,2.18241 -1.746184,-0.14454 -3.211016,-0.22666 -3.25518,-0.1825 -0.130135,0.13014 4.380064,0.9026 6.959225,1.1919 3.519104,0.39474 12.764044,0.32793 15.875004,-0.11471 8.23247,-1.17138 15.48051,-3.549 23.15104,-7.59439 10.72905,-5.65844 24.37588,-17.67286 28.72711,-25.29081 0.66409,-1.16267 0.96389,-1.08776 0.52945,0.13229 -0.50297,1.4125 -2.38418,5.32157 -3.08772,6.41615 l -0.59522,0.92604 1.12997,-1.05833 c 4.20583,-3.93923 9.41196,-12.29269 12.82343,-20.57576 2.58709,-6.28148 5.41871,-16.37876 6.27227,-22.36632 0.0145,-0.10175 0.1217,0.11265 0.23821,0.47645 0.30713,0.95901 0.30402,6.61873 -0.005,9.39271 -0.22225,1.99406 -0.80927,5.3415 -1.46154,8.33438 -0.0793,0.3638 0.27366,-0.29105 0.78432,-1.45521 0.51067,-1.16417 1.00567,-2.50494 1.10002,-2.97949 0.19417,-0.97672 0.64071,-1.42083 0.64071,-0.63723 0,0.98556 -0.82521,4.95315 -1.49513,7.18859 -2.04294,6.817 -6.99068,16.56353 -11.40767,22.47192 -1.22483,1.63839 -1.33748,1.87216 -0.67482,1.4003 0.4375,-0.31153 1.24398,-1.11378 1.79218,-1.78278 2.27917,-2.78143 0.9504,0.0375 -1.68517,3.57504 -1.90244,2.5535 -8.49985,9.19543 -11.40023,11.47718 -5.5628,4.37629 -11.73405,8.46172 -16.40417,10.85974 -8.74024,4.48794 -19.47807,7.58518 -29.8598,8.61281 -3.13849,0.31065 -11.90346,0.30345 -14.87775,-0.0122 z m -0.399648,-12.59436 c 0.336973,-0.46208 0.570198,-1.39978 0.70536,-2.83596 0.129006,-1.37075 0.448845,-2.69776 0.885635,-3.67451 1.092965,-2.44409 0.868349,-6.03815 -0.592296,-9.47739 l -0.47905,-1.12796 0.114909,2.40338 c 0.112935,2.36213 0.0962,2.44399 -0.974561,4.76849 -0.599207,1.3008 -1.089467,2.48454 -1.089467,2.63054 0,0.57404 -1.033171,1.20489 -1.699432,1.03767 -0.398336,-0.1 -1.220065,0.0457 -2.061181,0.36538 -0.769321,0.29241 -1.485019,0.53171 -1.590442,0.53178 -0.105423,7e-5 -1.176986,-0.79672 -2.38125,-1.77064 -1.204265,-0.97393 -2.487227,-1.91701 -2.851029,-2.09574 -0.363802,-0.17873 -2.145707,-0.57435 -3.959791,-0.87914 -1.814081,-0.3048 -3.800536,-0.79729 -4.414343,-1.09443 -0.639194,-0.30943 -2.352154,-1.80551 -4.009258,-3.50165 -1.591283,-1.62876 -3.481866,-3.49718 -4.201295,-4.15202 -0.719429,-0.65484 -1.755087,-1.99038 -2.301465,-2.96786 -1.50922,-2.70004 -3.150111,-4.37069 -5.309018,-5.40532 -2.431892,-1.16545 -2.87256,-1.12251 -1.294736,0.12616 2.235771,1.76936 3.950764,3.88289 5.094348,6.27821 0.59852,1.25363 1.548292,2.83455 2.110606,3.51314 0.562313,0.67859 1.636302,2.44059 2.386639,3.91555 0.98619,1.93859 1.811642,3.13333 2.978666,4.31126 2.310318,2.33192 2.672909,2.47571 6.747828,2.6758 4.074763,0.20008 5.159833,0.60879 8.023903,3.02238 3.205218,2.70107 3.506327,2.90139 5.259771,3.49909 0.963427,0.3284 2.347,0.59643 3.074604,0.59561 1.119944,-0.001 1.400157,-0.1074 1.826345,-0.69182 z m -15.055512,-7.54926 c -0.436563,-0.1331 -1.946656,-0.17529 -3.355766,-0.0938 -1.482455,0.0858 -2.859257,0.0352 -3.267427,-0.11995 -1.509514,-0.57392 -4.886183,-4.79314 -4.886183,-6.1054 0,-0.16798 0.831218,0.4787 1.847152,1.43708 2.49577,2.35439 2.900632,2.5843 4.96625,2.82022 1.812227,0.20698 4.307343,1.01525 5.240552,1.69763 0.681747,0.49851 0.435703,0.66304 -0.544578,0.36418 z m 12.984404,-3.84241 c 0.684593,-1.35109 0.772091,-1.79227 0.757994,-3.82198 -0.01439,-2.07285 -0.08809,-2.3987 -0.762659,-3.3721 -0.410699,-0.59264 -1.563076,-1.7454 -2.560839,-2.5617 -3.198728,-2.61698 -5.474041,-5.33048 -7.299261,-8.70496 -0.472263,-0.87312 -0.861367,-1.40633 -0.864672,-1.1849 -0.0063,0.41963 0.834914,3.48864 1.176867,4.29376 0.135347,0.31867 0.07689,0.46302 -0.187519,0.46302 -0.544557,0 -1.055327,-0.64238 -2.314149,-2.91042 -1.032245,-1.85981 -1.090662,-1.91794 -0.930627,-0.92604 0.47425,2.93941 4.219962,9.98336 6.479181,12.18433 0.656809,0.63988 1.784511,1.57994 2.506009,2.08902 1.904791,1.344 2.521622,2.50343 2.523292,4.7429 0.0016,2.15222 0.264718,2.10038 1.476383,-0.29093 z m -10.881393,-0.88804 c -0.389133,-0.62963 -3.406846,-2.63322 -5.471543,-3.63279 -3.123621,-1.51222 -3.576551,-1.94784 -4.851652,-4.66617 -0.617776,-1.31702 -1.480399,-2.73362 -1.916938,-3.14803 -0.815626,-0.77425 -3.98131,-2.818 -4.365384,-2.81827 -0.118256,-8e-5 0.468278,0.80353 1.303406,1.78579 0.894662,1.05229 1.978962,2.76414 2.639531,4.16719 1.16827,2.4814 2.398112,3.92312 4.077277,4.77973 0.82994,0.42338 8.480007,3.77886 8.68072,3.80754 0.04497,0.006 0.0021,-0.11732 -0.09542,-0.27499 z M 60.84174,184.63904 c -0.869857,-0.9095 -2.186496,-2.55333 -2.925866,-3.65296 -0.857977,-1.27601 -2.019861,-2.54513 -3.211645,-3.50805 -3.254089,-2.62918 -4.914397,-4.75793 -6.249585,-8.01283 -0.41189,-1.0041 -1.201619,-2.91377 -1.75495,-4.24371 -0.553332,-1.32994 -1.406733,-3.77073 -1.896447,-5.42396 -0.738577,-2.49338 -1.137761,-3.348 -2.341237,-5.01243 -0.797967,-1.1036 -1.700288,-2.59188 -2.005159,-3.30729 -0.553728,-1.29938 -2.111643,-8.03457 -3.360911,-14.52991 -0.699976,-3.63941 -1.745943,-7.51342 -2.488008,-9.215 -0.436069,-0.99992 -0.446427,-0.88419 -0.437562,4.88917 l 0.0091,5.91333 1.123429,3.43958 c 0.654306,2.00328 1.348933,4.87588 1.663456,6.87917 0.654488,4.16861 0.902434,4.8525 2.870494,7.91753 3.139079,4.88875 4.019564,6.67354 6.392127,12.95716 0.708605,1.87671 1.656356,3.98565 2.106116,4.68654 0.890907,1.38836 4.344194,4.78312 7.425907,7.30005 1.66525,1.36007 6.224463,4.53719 6.554232,4.56737 0.05945,0.005 -0.603615,-0.73425 -1.47347,-1.64376 z m 0.715203,-20.19482 c -0.361145,-1.31639 -1.157166,-3.04442 -2.275888,-4.94059 -0.946266,-1.60387 -1.654328,-2.98228 -1.573474,-3.06313 0.356298,-0.3563 3.114104,2.84755 4.127037,4.79454 0.594971,1.14361 1.130139,2.03092 1.18926,1.9718 0.182729,-0.18273 -0.708226,-2.9053 -1.406687,-4.29853 -1.241642,-2.47672 -2.283925,-3.47693 -4.945345,-4.74576 -1.929289,-0.91979 -2.690913,-1.45302 -3.562819,-2.49441 -0.715679,-0.8548 -1.457193,-1.43491 -2.090854,-1.63574 -1.56052,-0.49457 -2.055572,-0.91448 -3.649009,-3.09508 -1.638931,-2.24285 -3.401053,-4.18752 -4.180645,-4.61373 -0.39884,-0.21805 -0.365136,-0.0957 0.169577,0.61567 0.744439,0.99036 2.10524,3.67392 3.232895,6.37542 1.02219,2.44884 2.206833,3.74173 4.468722,4.87704 1.037846,0.52093 2.32719,1.31902 2.865207,1.77354 0.538017,0.45451 1.331161,1.09461 1.762543,1.42245 0.73687,0.55999 2.449812,3.16861 5.076894,7.73155 0.626227,1.08769 1.185709,1.83627 1.243293,1.66352 0.05758,-0.17275 -0.145235,-1.22511 -0.450707,-2.33856 z m -27.158909,-1.6333 c -2.963162,-6.60395 -5.310851,-15.07076 -6.32298,-22.80349 -0.528481,-4.03763 -0.528467,-14.34887 2.6e-5,-18.93616 2.095092,-18.18527 9.282327,-34.574803 21.00011,-47.887963 0.640413,-0.72761 0.09895,-0.24096 -1.203243,1.08144 -6.834668,6.94069 -12.962656,15.90902 -16.61668,24.31856 -6.028626,13.874563 -7.904059,33.279143 -4.510343,46.667273 0.979242,3.86309 2.845093,8.96035 4.648417,12.69886 1.491714,3.0925 3.335913,6.38283 3.57752,6.38283 0.06039,0 -0.197383,-0.68461 -0.572827,-1.52135 z M 62.291773,149.8664 c -0.300881,-0.6802 -0.93899,-1.84106 -1.418018,-2.57969 -1.083863,-1.67126 -5.660081,-5.92835 -8.389433,-7.8044 -1.127437,-0.77495 -3.4237,-2.70319 -5.102807,-4.28497 -1.679108,-1.58178 -3.435565,-3.07291 -3.90324,-3.31362 -1.917021,-0.98669 -4.669769,-3.0451 -5.959651,-4.45644 -0.755127,-0.82623 -1.372958,-1.36884 -1.372958,-1.20579 0,0.40099 0.898709,2.13592 1.745069,3.36881 0.641748,0.93482 0.68006,1.15005 0.530452,2.97994 -0.125758,1.53817 -0.0911,1.90219 0.157445,1.65365 0.581571,-0.58157 1.694513,-0.33277 3.146358,0.70338 0.787674,0.56215 1.967916,1.2937 2.622759,1.62567 1.944106,0.98558 2.784393,1.75971 4.885611,4.50096 1.766613,2.30472 2.155137,2.6641 3.383725,3.12985 3.570936,1.35374 6.600605,3.30861 9.048425,5.83843 0.575236,0.59451 1.074557,1.08093 1.109601,1.08093 0.03504,0 -0.182459,-0.55652 -0.483338,-1.23671 z M 80.470435,62.895317 c 7.841329,-2.63936 17.49138,-4.13181 26.715855,-4.13181 7.58852,0 14.16659,0.80237 20.74343,2.53021 1.36795,0.35938 2.53285,0.60775 2.58867,0.55193 0.1778,-0.1778 -5.50134,-1.96995 -8.38314,-2.64545 -13.27049,-3.11063 -27.103397,-2.37075 -39.047626,2.08852 -2.305121,0.86059 -5.769197,2.45593 -5.402373,2.48799 0.07276,0.006 1.326094,-0.39027 2.785184,-0.88139 z M 138.12198,178.02446 c 0.58298,-2.00091 0.53446,-2.2864 -0.56327,-3.31425 -0.78009,-0.73043 -1.93548,-1.31853 -4.46752,-2.27399 -5.41992,-2.04519 -7.67251,-3.69535 -9.22405,-6.75716 -0.37536,-0.74073 -0.75371,-1.34679 -0.84079,-1.34679 -0.2983,0 0.21291,2.97311 0.71102,4.13514 1.01044,2.35727 3.86863,4.76302 6.42291,5.40619 0.67946,0.17109 1.23539,0.40871 1.23539,0.52804 0,0.78236 -9.96152,0.89428 -13.4896,0.15156 -5.46305,-1.15007 -10.74848,-4.06417 -12.45198,-6.86536 l -0.48475,-0.7971 -0.18232,0.72644 c -0.10028,0.39954 -0.12471,1.53173 -0.0543,2.51598 0.19033,2.66014 1.59359,5.37571 3.25969,6.3081 1.88289,1.05372 -2.71761,0.47617 -6.99437,-0.87809 -4.934662,-1.56257 -12.370674,-5.66789 -15.401691,-8.50305 -2.59062,-2.42322 -4.471535,-5.9674 -4.471535,-8.42564 0,-0.64975 -0.118316,-1.18137 -0.262924,-1.18137 -0.454576,0 -1.763311,2.0393 -2.115114,3.29581 -0.337876,1.20678 -0.2609,4.56875 0.125963,5.50158 0.313603,0.75618 -0.320998,0.55203 -2.230922,-0.71768 -5.627756,-3.74133 -9.575194,-11.61939 -9.202047,-18.36489 0.167976,-3.03654 0.676852,-4.8141 1.897406,-6.62783 0.497166,-0.73879 0.844143,-1.34325 0.771062,-1.34325 -0.07308,0 -0.648311,0.35464 -1.278292,0.78807 -1.394859,0.95969 -2.613493,2.45799 -3.345934,4.1138 -0.311147,0.70339 -0.648036,1.14013 -0.77869,1.00948 -0.486656,-0.48666 -1.043009,-4.21953 -1.043009,-6.99813 0,-2.95203 0.477298,-6.01215 1.221219,-7.82967 0.226338,-0.55298 1.01971,-1.62782 1.763046,-2.38853 l 1.351524,-1.38311 -1.351479,0.51352 c -1.839352,0.6989 -4.352613,0.91302 -6.423893,0.54728 -2.858424,-0.50472 -6.461877,-1.82552 -8.784096,-3.2197 -3.543657,-2.1275 -5.184314,-4.04709 -6.305918,-7.37801 -0.75174,-2.2325 -0.609699,-4.86801 0.378724,-7.02701 0.991896,-2.16658 3.608087,-4.67348 6.059004,-5.80587 4.259176,-1.96786 9.738252,-3.00244 13.246866,-2.50131 0.99905,0.14269 1.951551,0.32612 2.116666,0.40762 0.165116,0.0815 -0.02721,-0.13279 -0.427392,-0.47621 -0.400182,-0.34341 -0.727604,-0.70457 -0.727604,-0.80258 0,-0.782793 4.878729,-3.896493 9.016493,-5.754503 1.942861,-0.87242 5.263099,-2.62702 7.378306,-3.89911 7.42419,-4.46493 12.784892,-6.69674 21.103761,-8.78607 9.68973,-2.43363 19.70106,-2.84952 24.67852,-1.0252 0.80037,0.29334 1.93146,0.63535 2.51355,0.76002 1.41763,0.30361 6.02125,-0.29182 12.7,-1.64263 3.21515,-0.65027 6.38183,-1.12356 8.06979,-1.2061 4.50704,-0.22039 5.92815,0.44494 7.30109,3.4182 0.67778,1.46781 0.7687,1.96201 0.7687,4.17825 0,2.3284 0.053,2.58283 0.71967,3.45415 1.08471,1.41773 1.83439,3.31845 1.99128,5.04866 0.0774,0.85325 0.0509,1.55136 -0.0587,1.55136 -0.10966,0 -0.76878,-0.30991 -1.46473,-0.68869 -1.38803,-0.75546 -2.36101,-2.2149 -2.89231,-4.33839 -0.16385,-0.65485 -0.60742,-1.94086 -0.98572,-2.85781 -0.57256,-1.38783 -0.66352,-1.93503 -0.54285,-3.26579 l 0.14495,-1.59862 -0.57245,0.53402 c -0.98067,0.91482 -3.28128,1.91448 -4.73585,2.05781 -0.76608,0.0755 -1.69052,0.20459 -2.05432,0.28689 l -0.66146,0.14965 0.7182,0.20486 c 0.39501,0.11267 1.88329,0.28784 3.30729,0.38926 1.424,0.10142 2.84448,0.34553 3.15662,0.54246 0.62539,0.39456 2.07909,3.90681 2.52291,6.09554 0.22031,1.08646 0.19547,1.4967 -0.12816,2.11667 -1.04484,2.0016 -12.09745,13.003033 -17.24978,17.169903 -3.04774,2.46482 -5.85341,5.37464 -7.21774,7.48568 -3.0442,4.71031 -4.46354,11.13577 -4.24626,19.22304 l 0.10989,4.09008 1.37475,2.76562 c 0.75611,1.52109 2.11143,3.75991 3.01183,4.97515 3.42619,4.62428 9.63,10.107 13.58212,12.00344 2.37772,1.14096 5.43087,1.98007 7.20458,1.98007 1.16002,0 1.39438,0.0791 1.39438,0.47048 0,0.69538 -1.73857,4.19877 -2.80374,5.64982 -2.38881,3.25421 -8.93201,6.29844 -13.56514,6.3112 -1.34824,0.004 -1.41117,-0.0261 -1.24648,-0.5914 z m -36.92763,-7.50393 c -0.18212,-0.43743 -0.32339,-2.06557 -0.33031,-3.80701 -0.0121,-3.03256 -0.008,-3.05394 1.30299,-6.41227 0.7233,-1.85327 1.39114,-3.37132 1.48409,-3.37344 0.0929,-0.002 0.24177,0.38407 0.33072,0.85822 0.23985,1.27853 2.07255,3.91741 3.88785,5.59805 2.00869,1.85969 4.0181,3.22803 6.72494,4.57942 2.03473,1.01585 5.40047,2.30129 5.57323,2.12852 0.0458,-0.0458 -0.62302,-0.42823 -1.48619,-0.84991 -2.0644,-1.00853 -5.50279,-3.74701 -6.85913,-5.4629 -0.59528,-0.75309 -1.03176,-1.41982 -0.96996,-1.48163 0.0618,-0.0618 0.80029,0.32768 1.64107,0.86552 1.5378,0.98372 4.31513,2.23267 4.93999,2.2215 0.18479,-0.003 -0.39312,-0.39904 -1.28424,-0.87941 -2.27206,-1.22478 -5.8197,-3.61899 -7.31666,-4.93783 -1.55914,-1.37361 -3.49713,-4.05004 -4.03357,-5.57049 -0.22097,-0.62627 -0.50376,-2.60377 -0.62843,-4.39444 -0.29128,-4.18369 -0.90534,-5.57749 -3.33878,-7.57846 -0.917623,-0.75455 -2.062325,-1.60244 -2.543774,-1.8842 l -0.875363,-0.51229 0.974106,1.18876 c 1.965871,2.39909 3.639991,7.18997 3.639991,10.41667 0,1.13897 -0.31862,2.69513 -1.05368,5.14634 -1.212539,4.04344 -1.856739,6.9632 -1.856739,8.41545 0,1.43123 0.689177,3.90403 1.506689,5.40607 0.74875,1.37571 1.09043,1.567 0.57116,0.31976 z m -10.961425,-6.71742 c -0.387255,-4.15452 -1.307274,-6.51488 -4.046453,-10.38139 -2.749608,-3.88125 -3.72731,-6.06481 -3.735581,-8.34293 -0.0028,-0.75739 0.07088,-0.84975 0.592172,-0.74285 0.327422,0.0671 1.066025,0.19843 1.64134,0.29172 1.881574,0.30512 4.655649,2.05138 7.517242,4.73207 1.32539,1.2416 2.772058,4.01344 3.241598,6.21096 0.465387,2.17808 0.691187,2.17603 0.886616,-0.008 0.206124,-2.30359 -0.354472,-5.62974 -1.186534,-7.03998 -0.300435,-0.5092 -0.487715,-0.98434 -0.416182,-1.05588 0.222369,-0.22236 3.29736,2.86674 3.652669,3.66944 0.32222,0.72794 0.736689,1.02272 0.736689,0.52394 0,-0.75173 -1.161407,-3.7958 -1.831956,-4.80159 -1.304541,-1.95676 -4.594641,-4.19661 -7.990015,-5.43949 -0.719249,-0.26328 -2.36161,-0.4693 -4.333237,-0.54358 -1.74625,-0.0658 -3.441386,-0.17462 -3.766966,-0.24186 -0.871538,-0.17999 -1.311693,-1.03407 -2.032439,-3.94376 -0.687393,-2.77505 -1.158764,-3.63562 -2.486676,-4.53988 -1.267246,-0.86295 -4.686488,-1.68619 -6.94548,-1.67224 l -1.966357,0.0121 1.5875,0.76197 c 2.184369,1.04847 2.601855,1.44718 3.791202,3.62075 1.308134,2.39065 1.45995,3.44906 1.101098,7.67658 -0.437327,5.15204 0.173283,7.94989 2.41681,11.07394 1.03642,1.44319 1.264719,1.36785 0.485206,-0.16013 -0.538099,-1.05476 -1.057328,-4.21198 -0.69269,-4.21198 0.09001,0 0.393772,0.44649 0.675021,0.99219 0.651248,1.26362 1.77006,2.30328 4.271989,3.96979 2.206289,1.46959 4.367951,3.66272 5.930583,6.01693 1.130565,1.70327 2.505393,4.73181 2.522884,5.55755 0.0094,0.44186 0.05485,0.46369 0.275733,0.13229 0.152861,-0.22934 0.196853,-1.12284 0.104214,-2.11666 z m -7.669424,-11.92639 c -2.912031,-1.97973 -3.835337,-2.85159 -4.69759,-4.43583 -0.641141,-1.17799 -0.816383,-1.96416 -1.513271,-6.78883 -0.321035,-2.22258 -1.875825,-6.81545 -2.575616,-7.60839 -0.697018,-0.78981 -0.13131,-0.83259 0.787392,-0.0596 1.376656,1.15838 3.046704,3.46974 3.490913,4.83145 0.224091,0.68695 0.577405,2.41183 0.78514,3.83307 0.485831,3.32387 1.566799,5.59654 4.238498,8.91121 1.759429,2.18285 2.249369,2.92451 1.93193,2.92451 -0.04548,0 -1.146808,-0.72344 -2.447396,-1.60764 z m 33.345869,3.44173 c 2.39299,-0.41673 2.44982,-0.48186 1.79498,-2.05759 -1.25552,-3.02111 -4.95321,-7.4217 -8.17821,-9.73283 -1.47036,-1.0537 -5.78756,-3.27752 -6.34758,-3.26969 -0.12408,0.002 0.46208,0.38869 1.30258,0.8599 1.72822,0.96888 4.00766,2.85516 4.45074,3.68306 0.27183,0.50791 0.23993,0.53903 -0.39419,0.38451 -2.0373,-0.49644 -2.03977,-0.42354 -0.0285,0.84061 3.80995,2.39464 6.73918,5.30551 6.74431,6.70202 0.003,0.84008 -0.3896,1.02152 -2.20189,1.01736 -1.70542,-0.004 -3.59899,-0.50049 -5.40232,-1.4167 -0.76398,-0.38816 -1.38906,-0.59984 -1.38906,-0.4704 0,0.35069 2.19967,2.31192 3.13614,2.79619 1.75795,0.90907 3.86842,1.12409 6.51298,0.66356 z m 8.62453,-7.39965 c 0.68699,-0.36767 0.65025,-0.80424 -0.29611,-3.5178 -1.52386,-4.3695 -1.50493,-7.60061 0.0886,-15.12602 1.18532,-5.59759 1.14699,-6.77598 -0.32274,-9.92188 -0.76223,-1.63153 -1.2146,-2.99942 -1.28916,-3.89819 -0.0632,-0.76156 -0.21248,-1.32434 -0.33178,-1.25061 -0.43415,0.26833 -0.57652,2.63001 -0.28346,4.70229 0.16509,1.16744 0.22912,2.19197 0.14227,2.27675 -0.18403,0.17965 -1.57104,-1.3933 -2.08538,-2.36496 -0.19419,-0.36687 -0.53538,-1.72341 -0.75819,-3.01456 -0.40495,-2.34658 -0.40577,-2.34819 -2.05193,-3.99774 -0.90574,-0.90762 -1.86059,-2.05139 -2.12187,-2.5417 -1.27612,-2.39472 0.0296,1.8967 1.41618,4.65446 0.73246,1.4568 1.13048,2.66322 1.28522,3.89552 0.24001,1.91145 1.04439,3.74703 3.08849,7.04786 l 1.19968,1.93725 -0.23768,3.08984 c -0.40917,5.31935 -0.28488,9.10223 0.41109,12.51147 0.72748,3.56362 0.65023,4.07185 -0.58731,3.86368 -1.60791,-0.27047 -5.28338,-1.84566 -7.01321,-3.00563 -0.95047,-0.63736 -1.77098,-1.11597 -1.82337,-1.06358 -0.17252,0.17251 1.40427,1.99131 2.57257,2.96739 2.76924,2.31363 7.25664,3.68814 8.99808,2.75616 z m -16.30285,-10.13246 c -0.75707,-1.65368 -1.14616,-3.88115 -0.67793,-3.88115 0.52013,0 2.6922,2.16972 3.23273,3.22925 0.28173,0.55224 0.55669,1.00408 0.61102,1.00408 0.0543,0 -0.0234,-0.4813 -0.1727,-1.06956 -0.1859,-0.73236 -0.84837,-1.70469 -2.10134,-3.08414 -2.09234,-2.30358 -3.60104,-4.71149 -4.57112,-7.29557 -0.8705,-2.31884 -0.87247,-4.3443 -0.009,-9.7174 0.36228,-2.25557 0.735,-5.11307 0.82826,-6.35 0.17509,-2.32226 0.88621,-4.73976 1.5583,-5.29755 0.74245,-0.61618 2.09683,-0.0569 3.93,1.62287 0.9633,0.88269 1.75034,1.50505 1.74897,1.38302 -0.014,-1.25246 -4.02812,-5.69805 -5.81229,-6.43708 -0.8237,-0.34118 -0.90729,-0.32442 -1.39737,0.28032 -0.45307,0.55906 -0.49886,0.8908 -0.35003,2.53571 0.14136,1.56223 0.0756,2.13938 -0.37691,3.30729 -0.90527,2.33656 -2.08819,7.53588 -2.40679,10.5786 -0.16458,1.57189 -0.24779,4.43933 -0.1849,6.37209 0.10442,3.20904 0.18859,3.69658 0.96952,5.61604 1.14216,2.80733 2.99855,5.88045 4.46125,7.38527 0.65672,0.67563 1.23286,1.22842 1.2803,1.22842 0.0474,0 -0.20433,-0.63473 -0.55949,-1.41051 z m -22.526564,0.33069 c 1.721475,-1.14026 3.485867,-3.18759 4.395769,-5.10069 1.37513,-2.89125 1.537142,-7.35732 0.349015,-9.6211 l -0.524539,-0.99943 -2.481718,0.0818 c -1.432282,0.0472 -2.89038,-0.051 -3.448122,-0.23228 -1.070274,-0.34783 -0.47167,-0.605 -6.441932,2.76754 -1.455208,0.82203 -3.360209,1.76011 -4.233334,2.08461 l -1.5875,0.59 1.594446,0.0772 c 1.578438,0.0765 2.662401,-0.18395 6.2703,-1.50639 0.833109,-0.30537 2.113031,-0.55522 2.844271,-0.55522 1.153136,0 1.329526,0.0702 1.329526,0.52917 0,0.70473 0.467952,0.66708 1.644335,-0.13229 0.535384,-0.3638 1.087157,-0.66146 1.226161,-0.66146 0.44441,0 0.833956,1.61273 0.824376,3.41292 -0.01688,3.17344 -0.915035,6.1235 -2.617759,8.59833 -1.232916,1.79198 -1.052944,1.93216 0.856705,0.66726 z m 29.182264,-8.80053 c 0.2691,-2.3141 -1.50391,-6.49696 -3.94285,-9.30194 l -0.92023,-1.05833 -0.19256,2.30729 c -0.10591,1.26901 -0.11206,2.62802 -0.0137,3.02002 0.0984,0.392 0.88158,1.67991 1.74045,2.86202 0.85886,1.18211 1.8215,2.73692 2.13919,3.45513 0.53546,1.21049 0.59419,1.26109 0.80432,0.69304 0.12468,-0.33703 0.29809,-1.22679 0.38536,-1.97723 z m -45.869718,-7.85978 c 1.093965,-0.30382 1.430152,-0.77687 1.956379,-2.75287 1.013595,-3.80605 -0.392681,-9.24472 -2.97715,-11.51392 l -0.993756,-0.87253 -2.434265,0.17111 c -5.299615,0.37253 -10.361671,2.43598 -13.672053,5.57316 -2.609802,2.47325 0.0619,5.5226 7.209896,8.22898 1.091406,0.41324 2.579688,0.89699 3.307292,1.07502 1.647836,0.40318 6.280018,0.45865 7.603657,0.091 z m 19.952648,-2.20811 c 2.288098,-0.60923 4.084315,-1.77108 6.587675,-4.26113 1.843988,-1.83418 2.603805,-2.81814 3.307292,-4.28292 0.502322,-1.04591 1.017826,-1.90911 1.145563,-1.91822 0.21337,-0.0152 0.12116,0.97001 -0.246072,2.62926 -0.104045,0.47011 0.01905,0.36178 0.425492,-0.37446 0.84134,-1.52401 1.02361,-3.50025 0.58122,-6.30182 -0.33366,-2.11295 -0.33172,-2.52316 0.0161,-3.40855 l 0.39538,-1.00654 -0.58316,0.3821 c -1.098353,0.71967 -1.714382,1.91361 -2.381087,4.61485 -1.167715,4.73117 -3.360995,7.69073 -7.832805,10.56941 l -0.926042,0.59613 0.859896,-0.1477 c 0.472943,-0.0812 0.859896,-0.0524 0.859896,0.0642 0,0.36184 -1.122865,1.28443 -2.76256,2.26983 -1.695183,1.01874 -1.576162,1.14258 0.553239,0.5756 z m -9.89878,-8.39734 c 1.946939,-2.70678 4.8547,-5.18576 8.061132,-6.87244 2.333101,-1.22729 2.491037,-0.94864 0.578493,1.02063 -1.852615,1.90756 -3.630515,4.69174 -4.314277,6.75612 -0.633524,1.9127 -0.529691,1.8402 0.837454,-0.58473 1.914287,-3.3954 4.515691,-5.98457 8.93014,-8.88816 2.038324,-1.34069 4.777079,-3.378053 6.086123,-4.527463 7.924725,-6.95833 9.398095,-7.94002 13.095705,-8.72549 3.04162,-0.64612 8.73125,-0.13592 8.73125,0.78296 0,0.66012 -1.53035,2.71548 -3.10305,4.16761 -1.05581,0.97487 -2.22622,1.74073 -3.41842,2.23686 -1.7582,0.73166 -1.95661,0.7549 -6.57541,0.77019 -4.66954,0.0155 -4.78961,0.03 -6.15156,0.74417 -0.76398,0.40062 -1.38906,0.76624 -1.38906,0.81248 0,0.0463 0.95328,0.0289 2.1184,-0.0386 1.29934,-0.0752 3.29383,0.055 5.15849,0.33692 2.03169,0.30712 4.0277,0.42447 6.01753,0.35377 3.62867,-0.12891 5.02537,-0.66619 6.8873,-2.64938 1.65798,-1.76595 3.60613,-5.67085 3.80199,-7.62075 0.16509,-1.64352 0.34134,-1.48406 -2.99188,-2.70694 -3.09269,-1.13463 -10.93595,-0.60449 -14.5224,0.98161 -2.22167,0.98253 -3.64911,2.08547 -6.83087,5.27801 -3.151538,3.16222 -4.281637,3.89202 -9.03127,5.83225 -6.167735,2.519513 -10.000976,5.619643 -12.640888,10.223303 -0.778727,1.358 -1.894713,4.56442 -2.153938,6.18865 -0.167778,1.05124 -0.162963,1.04746 0.719193,-0.56434 0.488455,-0.89247 1.433375,-2.38075 2.099823,-3.30729 z m 34.13196,-13.075843 c 0.10765,-0.11052 1.03825,-0.53944 2.068,-0.95317 1.02975,-0.41372 2.27255,-1.05753 2.76178,-1.43069 1.07616,-0.82083 2.8344,-3.10353 3.47485,-4.51137 l 0.46773,-1.02814 0.0934,0.81426 c 0.21456,1.87098 -1.88906,5.80082 -3.53568,6.6051 -1.01774,0.49711 -5.76015,0.94555 -5.33005,0.50401 z m 24.75342,4.116843 c 1.69656,-0.76998 12.83954,-7.677213 12.66566,-7.851093 -0.15201,-0.15201 -4.3091,1.87761 -9.03981,4.4135 -5.01482,2.688193 -5.68854,3.114403 -5.68854,3.598643 0,0.50551 0.71744,0.4495 2.06269,-0.16105 z m 0.89158,-6.633813 c 1.64937,-0.59578 4.716,-1.67456 6.81474,-2.39728 3.46265,-1.1924 5.60077,-2.08047 4.12161,-1.71191 -0.29104,0.0725 -2.00353,0.49682 -3.80553,0.9429 -4.06632,1.00659 -10.1834,2.76624 -11.43667,3.28989 -1.23686,0.51679 -1.77352,1.13294 -1.10987,1.27425 0.72264,0.15386 2.11451,-0.20539 5.41572,-1.39785 z m -23.92911,-1.57932 c 1.22887,-0.009 1.24531,-0.0197 0.60192,-0.3875 -1.03854,-0.59368 -2.16456,-0.46859 -3.52008,0.39105 -0.68333,0.43336 -1.24242,0.84107 -1.24242,0.90602 0,0.0649 0.65187,-0.11102 1.4486,-0.39105 0.79673,-0.28003 2.01712,-0.51336 2.71198,-0.51852 z m 37.51129,71.266803 c -3.6116,-0.81014 -6.37254,-1.99832 -9.33137,-4.01579 -2.26831,-1.54664 -5.99304,-5.15185 -7.98348,-7.72729 -3.01117,-3.89619 -4.53622,-7.56831 -5.04757,-12.15392 -0.67147,-6.02149 0.34234,-12.20114 2.80823,-17.11736 1.86485,-3.71795 2.44088,-4.35437 12.33005,-13.62295 4.94673,-4.6363 8.67734,-8.36947 10.01766,-10.02453 1.1746,-1.450433 2.43898,-2.835903 2.80973,-3.078833 0.71392,-0.46778 2.27795,-0.50095 3.40557,-0.0722 0.78102,0.29694 0.86018,1.32823 0.25533,3.326453 -0.39179,1.29436 -0.38994,1.30531 0.53705,3.1866 1.27688,2.59134 1.80267,5.15219 1.82332,8.8804 0.0221,3.99211 -0.25949,4.30966 -1.43989,1.62369 -0.82595,-1.87944 -3.68559,-5.90958 -4.19322,-5.90958 -0.12096,0 -0.0644,0.80367 0.12575,1.78594 0.35339,1.82574 0.49946,7.78112 0.19824,8.08234 -0.0918,0.0918 -0.65733,-0.78653 -1.25677,-1.95183 -1.16662,-2.26792 -3.74364,-5.49913 -4.39717,-5.51341 -0.67063,-0.0147 -2.80019,1.72119 -4.26045,3.47276 -8.04785,9.65337 -9.26025,20.75453 -3.5268,32.29245 1.49497,3.00845 2.888,4.85234 4.54066,6.01025 0.69422,0.48639 1.58116,1.17733 1.97097,1.53541 l 0.70875,0.65106 0.78202,-0.55685 c 0.43012,-0.30627 1.5286,-1.39894 2.44107,-2.42816 1.88091,-2.12156 2.20593,-2.07564 1.95571,0.2763 l -0.15481,1.4552 1.56062,-1.70308 c 1.76691,-1.92819 2.05682,-1.82787 1.76941,0.61233 -0.32574,2.7656 -1.40334,5.28918 -3.06828,7.18544 -0.72829,0.82948 -0.77577,0.99168 -0.51185,1.74876 0.39278,1.12674 0.35319,2.90024 -0.0774,3.46749 -0.28328,0.37317 -0.7309,0.45707 -2.30669,0.43233 -1.07537,-0.0169 -2.19333,-0.0841 -2.48438,-0.14939 z m 0.67663,-4.75071 c 0.85985,-0.82017 1.91257,-2.04056 2.33936,-2.71198 1.00913,-1.58756 1.88021,-4.2976 1.87345,-5.82853 l -0.005,-1.21307 -1.78058,1.88764 c -2.63334,2.7917 -5.191,4.51473 -8.78954,5.92135 -1.63256,0.63814 -1.93023,0.94799 -1.56547,1.62954 0.4812,0.89913 2.93897,1.73888 5.22064,1.78376 1.04148,0.0205 1.28436,-0.11127 2.7075,-1.46871 z m 3.80991,-0.42702 c 2.24169,-2.31848 3.57885,-5.31143 3.57576,-8.00365 l -0.001,-1.05833 -1.56407,1.71979 c -0.86025,0.94589 -1.76986,2.25558 -2.02136,2.91042 -0.61642,1.60499 -1.95267,3.63881 -3.11968,4.74826 -0.52751,0.50149 -0.9591,1.0075 -0.9591,1.12448 0,0.11697 0.56042,0.21268 1.24539,0.21268 1.18074,0 1.32839,-0.0859 2.84427,-1.65365 z m 1.65793,-45.77292 c -0.16236,-3.83859 -0.76592,-6.66971 -1.89828,-8.90432 -0.37577,-0.74155 -0.57327,-1.34828 -0.43887,-1.34828 0.13439,0 0.60541,0.8632 1.0467,1.91823 0.60393,1.44383 1.2238,2.34856 2.50649,3.65831 1.20234,1.2277 2.01949,2.38814 2.77505,3.94085 l 1.07091,2.20076 0.18565,-0.98962 c 0.22372,-1.19253 -0.0375,-4.35106 -0.56871,-6.87631 -0.45318,-2.15434 -1.89797,-5.30616 -2.83613,-6.18705 l -0.65502,-0.61502 -1.07887,0.55039 c -0.59337,0.30272 -1.4337,0.89727 -1.86739,1.32121 -0.54682,0.53453 -0.9589,0.72626 -1.3443,0.62548 -1.22016,-0.31908 -4.4969,2.66011 -4.4969,4.08856 0,0.31863 1.08653,1.62743 2.71972,3.27606 2.09851,2.11834 2.9597,3.21355 3.77032,4.79482 0.57782,1.12717 1.09723,2.0499 1.15425,2.05053 0.057,5.2e-4 0.0369,-1.57645 -0.0446,-3.5046 z"
       id="path890" />
  </g>
</svg>
